<svg xmlns="http://www.w3.org/2000/svg" xmlns:xlink="http://www.w3.org/1999/xlink" width="1080" zoomAndPan="magnify" viewBox="0 0 810 809.999993" height="1080" preserveAspectRatio="xMidYMid meet" version="1.0"><defs><g/><clipPath id="d888ec6e0c"><path d="M 0 177.308594 L 600 177.308594 L 600 328.808594 L 0 328.808594 Z M 0 177.308594 " clip-rule="nonzero"/></clipPath></defs><rect x="-81" width="972" fill="#ffffff" y="-80.999999" height="971.999992" fill-opacity="1"/><rect x="-81" width="972" fill="#ffffff" y="-80.999999" height="971.999992" fill-opacity="1"/><g fill="#000000" fill-opacity="1"><g transform="translate(24.076508, 454.501669)"><g><path d="M 140.476562 -84.441406 L 66.800781 -84.441406 C 47.34375 -84.441406 32.429688 -76.660156 26.332031 -59.925781 L 12.0625 -20.753906 C 10.765625 -17.121094 11.15625 -13.488281 13.488281 -11.285156 L 25.035156 -1.945312 C 26.332031 -0.519531 28.277344 0 30.871094 0 L 109.867188 0 L 117.261719 -20.363281 L 76.402344 -20.363281 C 72.769531 -20.363281 70.953125 -23.21875 72.121094 -26.722656 L 83.40625 -57.722656 C 84.832031 -61.355469 88.59375 -64.078125 92.097656 -64.078125 L 133.085938 -64.078125 Z M 140.476562 -84.441406 "/></g></g></g><g fill="#000000" fill-opacity="1"><g transform="translate(140.801411, 454.501669)"><g><path d="M 123.484375 0 L 145.148438 -59.796875 C 146.574219 -63.558594 146.054688 -67.191406 143.589844 -69.394531 L 129.453125 -82.496094 C 128.15625 -83.925781 126.082031 -84.441406 123.746094 -84.441406 L 66.800781 -84.441406 C 64.335938 -84.441406 62.132812 -83.925781 59.796875 -82.496094 L 41.378906 -73.417969 C 37.617188 -71.210938 34.632812 -67.582031 32.945312 -63.6875 L 1.816406 0 L 50.71875 0 L 62.003906 -23.089844 L 69.265625 -15.824219 L 80.550781 -15.824219 L 74.84375 0 Z M 79.515625 -57.722656 C 81.328125 -61.222656 84.960938 -64.078125 88.59375 -64.078125 L 91.445312 -64.078125 C 95.078125 -64.078125 97.023438 -61.222656 95.726562 -57.722656 L 87.296875 -34.375 L 67.839844 -34.375 Z M 79.515625 -57.722656 "/></g></g></g><g fill="#000000" fill-opacity="1"><g transform="translate(272.052001, 454.501669)"><g><path d="M 58.890625 0 L 71.34375 -34.375 L 81.847656 0 L 135.808594 0 L 136.066406 -0.777344 L 122.707031 -31.390625 L 125.042969 -31.390625 C 128.027344 -31.390625 130.621094 -31.910156 133.863281 -34.894531 L 142.554688 -42.546875 C 144.5 -44.363281 145.539062 -45.789062 146.1875 -47.734375 L 150.726562 -59.925781 C 156.820312 -76.660156 147.351562 -84.441406 127.894531 -84.441406 L 35.152344 -84.441406 L 4.539062 0 Z M 82.109375 -64.078125 L 88.464844 -64.078125 C 91.835938 -64.078125 93.910156 -61.355469 92.484375 -57.722656 L 90.28125 -51.367188 C 88.984375 -47.992188 84.960938 -45.011719 81.328125 -45.011719 L 75.234375 -45.011719 Z M 82.109375 -64.078125 "/></g></g></g><g clip-path="url(#d888ec6e0c)"><path fill="#000000" d="M 27.925781 306.722656 C 37.273438 301.140625 47.515625 297.257812 58.089844 294.84375 C 59.40625 294.519531 60.738281 294.269531 62.070312 293.992188 C 62.734375 293.863281 63.40625 293.757812 64.078125 293.636719 C 64.746094 293.519531 65.414062 293.40625 66.089844 293.3125 C 68.769531 292.855469 71.480469 292.59375 74.191406 292.324219 C 79.625 291.863281 85.105469 291.722656 90.589844 291.957031 C 91.960938 292.003906 93.328125 292.101562 94.707031 292.179688 C 96.078125 292.296875 97.453125 292.410156 98.824219 292.558594 C 101.566406 292.851562 104.316406 293.214844 107.054688 293.699219 C 109.796875 294.171875 112.539062 294.710938 115.273438 295.371094 C 118.003906 296.03125 120.742188 296.753906 123.488281 297.546875 C 118.738281 294.359375 113.519531 291.824219 108.082031 289.847656 C 106.722656 289.34375 105.34375 288.910156 103.957031 288.464844 C 102.566406 288.058594 101.171875 287.652344 99.757812 287.308594 C 96.941406 286.589844 94.082031 286.03125 91.195312 285.609375 C 89.757812 285.382812 88.308594 285.222656 86.855469 285.054688 C 86.132812 284.980469 85.402344 284.9375 84.675781 284.871094 C 83.949219 284.808594 83.21875 284.761719 82.492188 284.730469 C 79.574219 284.539062 76.648438 284.582031 73.71875 284.648438 C 72.257812 284.71875 70.789062 284.78125 69.332031 284.929688 L 67.140625 285.128906 L 64.957031 285.390625 C 64.226562 285.472656 63.5 285.59375 62.777344 285.710938 C 62.050781 285.832031 61.324219 285.9375 60.601562 286.070312 C 59.160156 286.355469 57.714844 286.601562 56.285156 286.945312 C 44.828125 289.554688 33.785156 294.382812 24.371094 301.453125 C 19.6875 305.003906 15.390625 309.070312 11.792969 313.675781 C 10.886719 314.816406 10.039062 316.007812 9.214844 317.203125 L 8.039062 319.039062 C 7.644531 319.640625 7.304688 320.289062 6.945312 320.914062 C 5.523438 323.433594 4.324219 326.066406 3.394531 328.769531 C 10.171875 319.570312 18.566406 312.289062 27.925781 306.722656 Z M 599.792969 220.859375 L 599.074219 220.886719 C 574.328125 213.554688 549.613281 206.160156 524.605469 200.136719 C 511.523438 196.921875 498.355469 194.109375 485.117188 191.847656 C 481.816406 191.226562 478.492188 190.777344 475.179688 190.238281 C 473.519531 189.980469 471.863281 189.707031 470.207031 189.464844 L 465.222656 188.816406 L 460.238281 188.164062 C 458.574219 187.949219 456.90625 187.808594 455.242188 187.628906 C 451.910156 187.308594 448.585938 186.890625 445.246094 186.695312 L 440.242188 186.335938 C 438.574219 186.21875 436.90625 186.074219 435.234375 186.03125 C 431.894531 185.90625 428.554688 185.738281 425.222656 185.644531 L 415.246094 185.589844 C 411.925781 185.679688 408.605469 185.824219 405.285156 185.941406 C 392.015625 186.683594 378.8125 188.421875 365.8125 191.183594 C 352.808594 193.925781 339.992188 197.601562 327.445312 202.074219 C 314.875 206.511719 302.554688 211.703125 290.453125 217.410156 C 287.433594 218.839844 284.394531 220.242188 281.402344 221.757812 C 278.410156 223.265625 275.390625 224.703125 272.425781 226.28125 C 269.457031 227.839844 266.464844 229.363281 263.515625 230.949219 L 254.605469 235.753906 C 248.625 238.957031 242.53125 242.152344 236.175781 244.972656 C 229.835938 247.804688 223.210938 250.273438 216.304688 251.933594 L 213.710938 252.535156 L 211.140625 253.039062 C 209.425781 253.398438 207.707031 253.640625 205.992188 253.941406 C 202.5625 254.453125 199.128906 254.910156 195.710938 255.242188 C 188.867188 255.960938 182.066406 256.332031 175.332031 256.753906 C 168.597656 257.15625 161.933594 257.628906 155.339844 258.351562 L 135.269531 260.859375 C 128.566406 261.683594 121.886719 262.523438 115.230469 263.46875 C 108.578125 264.417969 101.945312 265.464844 95.347656 266.644531 C 82.167969 269.027344 69.105469 272.101562 56.554688 276.613281 C 44.011719 281.0625 31.933594 287.105469 21.738281 295.683594 C 16.65625 299.972656 12.136719 304.949219 8.457031 310.535156 C 4.742188 316.101562 1.945312 322.289062 0.0078125 328.769531 C 1.414062 322.152344 3.859375 315.722656 7.242188 309.785156 C 10.644531 303.859375 15.003906 298.464844 19.984375 293.734375 C 24.960938 288.988281 30.574219 284.941406 36.460938 281.414062 C 42.355469 277.878906 48.550781 274.886719 54.890625 272.28125 C 61.230469 269.679688 67.730469 267.507812 74.285156 265.59375 C 80.847656 263.667969 87.472656 262.03125 94.128906 260.566406 C 100.78125 259.085938 107.480469 257.855469 114.175781 256.714844 C 120.871094 255.574219 127.578125 254.550781 134.265625 253.539062 L 154.355469 250.472656 C 161.175781 249.546875 167.992188 248.96875 174.734375 248.421875 C 181.476562 247.875 188.171875 247.347656 194.761719 246.582031 C 198.0625 246.214844 201.324219 245.734375 204.570312 245.207031 C 206.175781 244.898438 207.804688 244.648438 209.394531 244.289062 L 211.789062 243.785156 L 214.125 243.207031 C 217.230469 242.398438 220.308594 241.449219 223.347656 240.3125 C 226.390625 239.199219 229.410156 237.957031 232.390625 236.582031 C 238.371094 233.867188 244.234375 230.734375 250.136719 227.511719 L 259.050781 222.660156 C 262.046875 221.035156 265.074219 219.484375 268.085938 217.898438 C 271.082031 216.292969 274.160156 214.816406 277.199219 213.273438 C 280.230469 211.71875 283.328125 210.285156 286.40625 208.816406 C 298.761719 203.023438 311.394531 197.738281 324.332031 193.222656 C 337.28125 188.746094 350.523438 185.011719 364.003906 182.355469 C 377.484375 179.699219 391.175781 178.042969 404.910156 177.574219 C 408.34375 177.519531 411.777344 177.4375 415.210938 177.410156 L 425.503906 177.683594 C 428.921875 177.867188 432.324219 178.132812 435.734375 178.355469 C 437.441406 178.449219 439.136719 178.640625 440.835938 178.808594 L 445.929688 179.316406 C 449.332031 179.609375 452.703125 180.125 456.089844 180.546875 C 457.777344 180.777344 459.472656 180.964844 461.15625 181.230469 L 471.25 182.832031 C 472.929688 183.125 474.601562 183.449219 476.269531 183.753906 C 479.617188 184.375 482.964844 184.984375 486.285156 185.730469 C 499.59375 188.542969 512.773438 191.855469 525.796875 195.632812 C 550.871094 202.964844 575.460938 211.59375 599.792969 220.859375 Z M 599.792969 220.859375 " fill-opacity="1" fill-rule="nonzero"/></g><path fill="#f8cf40" d="M 599.792969 223.214844 L 599.074219 223.238281 L 511.203125 226.695312 L 425.292969 243.730469 L 810 214.957031 Z M 269.289062 272.351562 L 371.03125 252.175781 L 724.90625 238.269531 Z M 140.78125 298.320312 L 242.523438 278.144531 L 596.398438 264.238281 Z M 140.78125 298.320312 " fill-opacity="1" fill-rule="nonzero"/><g fill="#f8cf40" fill-opacity="1"><g transform="translate(287.509751, 604.385635)"><g><path d="M 66.078125 -25.585938 L 78.125 -80.859375 L 31.050781 -80.859375 L 17.265625 -19.871094 C 16.269531 -16.148438 16.644531 -12.667969 18.507812 -10.558594 L 29.808594 -1.863281 C 31.050781 -0.496094 33.039062 0 35.273438 0 L 90.050781 0 C 92.285156 0 94.519531 -0.496094 96.757812 -1.863281 L 114.269531 -10.558594 C 117.996094 -12.667969 120.726562 -16.148438 122.46875 -19.871094 L 152.898438 -80.859375 L 105.824219 -80.859375 L 77.753906 -25.585938 C 76.015625 -22.234375 74.398438 -19.5 70.921875 -19.5 L 68.066406 -19.5 C 64.835938 -19.5 65.457031 -22.480469 66.078125 -25.585938 Z M 66.078125 -25.585938 "/></g></g></g><g fill="#f8cf40" fill-opacity="1"><g transform="translate(415.920761, 604.385635)"><g><path d="M 58.128906 -10.308594 L 83.714844 -80.859375 L 49.308594 -80.859375 C 48.066406 -80.859375 46.703125 -80.484375 45.707031 -79.863281 L 36.765625 -75.269531 C 34.777344 -74.273438 33.289062 -72.535156 32.542969 -70.550781 L 6.957031 0 L 41.359375 0 C 42.601562 0 43.96875 -0.371094 44.960938 -0.992188 L 54.03125 -5.589844 C 55.894531 -6.582031 57.382812 -8.320312 58.128906 -10.308594 Z M 58.128906 -10.308594 "/></g></g></g><g fill="#f8cf40" fill-opacity="1"><g transform="translate(480.374978, 604.385635)"><g><path d="M 3.851562 0 L 110.792969 0 L 117.871094 -19.5 L 75.019531 -19.5 L 134.640625 -65.703125 L 140.105469 -80.859375 L 33.164062 -80.859375 L 26.082031 -61.359375 L 68.3125 -61.359375 L 9.316406 -15.152344 Z M 3.851562 0 "/></g></g></g><g fill="#f8cf40" fill-opacity="1"><g transform="translate(598.105824, 604.385635)"><g><path d="M 58.128906 -10.308594 L 83.714844 -80.859375 L 49.308594 -80.859375 C 48.066406 -80.859375 46.703125 -80.484375 45.707031 -79.863281 L 36.765625 -75.269531 C 34.777344 -74.273438 33.289062 -72.535156 32.542969 -70.550781 L 6.957031 0 L 41.359375 0 C 42.601562 0 43.96875 -0.371094 44.960938 -0.992188 L 54.03125 -5.589844 C 55.894531 -6.582031 57.382812 -8.320312 58.128906 -10.308594 Z M 58.128906 -10.308594 "/></g></g></g><g fill="#f8cf40" fill-opacity="1"><g transform="translate(662.560041, 604.385635)"><g><path d="M 29.0625 0 L 88.558594 0 C 107.3125 0 121.597656 -7.453125 127.433594 -23.476562 L 141.097656 -60.984375 C 142.464844 -64.710938 141.71875 -68.1875 139.609375 -70.300781 L 128.554688 -78.996094 C 127.3125 -80.359375 125.324219 -80.859375 122.839844 -80.859375 L 63.34375 -80.859375 C 44.839844 -80.859375 30.554688 -73.40625 24.71875 -57.382812 L 11.054688 -19.871094 C 9.8125 -16.394531 10.183594 -12.917969 12.421875 -10.804688 L 23.351562 -1.863281 C 24.59375 -0.496094 26.578125 0 29.0625 0 Z M 61.480469 -25.585938 L 72.289062 -55.273438 C 73.652344 -58.75 77.378906 -61.359375 80.609375 -61.359375 L 86.199219 -61.359375 C 89.675781 -61.359375 91.664062 -58.75 90.296875 -55.273438 L 79.492188 -25.585938 C 78.375 -22.234375 74.523438 -19.5 71.292969 -19.5 L 65.703125 -19.5 C 62.226562 -19.5 60.363281 -22.234375 61.480469 -25.585938 Z M 61.480469 -25.585938 "/></g></g></g></svg>