<svg xmlns="http://www.w3.org/2000/svg" xmlns:xlink="http://www.w3.org/1999/xlink" width="150" zoomAndPan="magnify" viewBox="0 0 810 809.999993" height="150" preserveAspectRatio="xMidYMid meet" version="1.0"><defs><g/><clipPath id="e81c6f818b"><path d="M 52.160156 290.4375 L 579 290.4375 L 579 423.1875 L 52.160156 423.1875 Z M 52.160156 290.4375 " clip-rule="nonzero"/></clipPath><clipPath id="06e78cf6a8"><path d="M 175 323 L 762.328125 323 L 762.328125 397 L 175 397 Z M 175 323 " clip-rule="nonzero"/></clipPath></defs><g fill="#000000" fill-opacity="1"><g transform="translate(153.818861, 512.49645)"><g><path d="M 66.878906 -40.203125 L 31.804688 -40.203125 C 22.539062 -40.203125 15.4375 -36.496094 12.535156 -28.53125 L 5.742188 -9.878906 C 5.125 -8.152344 5.3125 -6.421875 6.421875 -5.371094 L 11.917969 -0.925781 C 12.535156 -0.246094 13.460938 0 14.699219 0 L 52.304688 0 L 55.828125 -9.695312 L 36.375 -9.695312 C 34.644531 -9.695312 33.78125 -11.054688 34.335938 -12.722656 L 39.707031 -27.480469 C 40.386719 -29.210938 42.179688 -30.507812 43.847656 -30.507812 L 63.359375 -30.507812 Z M 66.878906 -40.203125 "/></g></g></g><g fill="#000000" fill-opacity="1"><g transform="translate(209.390635, 512.49645)"><g><path d="M 58.789062 0 L 69.105469 -28.46875 C 69.78125 -30.261719 69.535156 -31.988281 68.363281 -33.039062 L 61.632812 -39.277344 C 61.015625 -39.957031 60.027344 -40.203125 58.914062 -40.203125 L 31.804688 -40.203125 C 30.628906 -40.203125 29.582031 -39.957031 28.46875 -39.277344 L 19.699219 -34.953125 C 17.910156 -33.902344 16.488281 -32.175781 15.6875 -30.320312 L 0.863281 0 L 24.144531 0 L 29.519531 -10.992188 L 32.976562 -7.535156 L 38.351562 -7.535156 L 35.632812 0 Z M 37.855469 -27.480469 C 38.71875 -29.148438 40.449219 -30.507812 42.179688 -30.507812 L 43.539062 -30.507812 C 45.265625 -30.507812 46.191406 -29.148438 45.574219 -27.480469 L 41.5625 -16.363281 L 32.296875 -16.363281 Z M 37.855469 -27.480469 "/></g></g></g><g fill="#000000" fill-opacity="1"><g transform="translate(271.877971, 512.49645)"><g><path d="M 28.035156 0 L 33.964844 -16.363281 L 38.96875 0 L 64.65625 0 L 64.78125 -0.371094 L 58.421875 -14.945312 L 59.53125 -14.945312 C 60.953125 -14.945312 62.1875 -15.191406 63.730469 -16.613281 L 67.867188 -20.253906 C 68.796875 -21.121094 69.289062 -21.800781 69.597656 -22.726562 L 71.757812 -28.53125 C 74.660156 -36.496094 70.152344 -40.203125 60.890625 -40.203125 L 16.734375 -40.203125 L 2.160156 0 Z M 39.089844 -30.507812 L 42.117188 -30.507812 C 43.722656 -30.507812 44.710938 -29.210938 44.03125 -27.480469 L 42.980469 -24.453125 C 42.363281 -22.847656 40.449219 -21.429688 38.71875 -21.429688 L 35.816406 -21.429688 Z M 39.089844 -30.507812 "/></g></g></g><g fill="#000000" fill-opacity="1"><g transform="translate(335.908966, 512.49645)"><g/></g></g><g fill="#000000" fill-opacity="1"><g transform="translate(363.386286, 512.49645)"><g><path d="M 32.855469 -12.722656 L 38.84375 -40.203125 L 15.4375 -40.203125 L 8.582031 -9.878906 C 8.089844 -8.027344 8.273438 -6.300781 9.203125 -5.25 L 14.820312 -0.925781 C 15.4375 -0.246094 16.425781 0 17.539062 0 L 44.773438 0 C 45.882812 0 46.996094 -0.246094 48.105469 -0.925781 L 56.816406 -5.25 C 58.667969 -6.300781 60.027344 -8.027344 60.890625 -9.878906 L 76.019531 -40.203125 L 52.617188 -40.203125 L 38.660156 -12.722656 C 37.792969 -11.054688 36.992188 -9.695312 35.261719 -9.695312 L 33.839844 -9.695312 C 32.234375 -9.695312 32.542969 -11.175781 32.855469 -12.722656 Z M 32.855469 -12.722656 "/></g></g></g><g fill="#000000" fill-opacity="1"><g transform="translate(427.232024, 512.49645)"><g><path d="M 28.902344 -5.125 L 41.621094 -40.203125 L 24.515625 -40.203125 C 23.898438 -40.203125 23.21875 -40.015625 22.726562 -39.707031 L 18.28125 -37.421875 C 17.292969 -36.929688 16.550781 -36.066406 16.179688 -35.078125 L 3.457031 0 L 20.5625 0 C 21.183594 0 21.859375 -0.183594 22.355469 -0.492188 L 26.863281 -2.777344 C 27.789062 -3.273438 28.53125 -4.136719 28.902344 -5.125 Z M 28.902344 -5.125 "/></g></g></g><g fill="#000000" fill-opacity="1"><g transform="translate(459.278547, 512.49645)"><g><path d="M 1.914062 0 L 55.085938 0 L 58.605469 -9.695312 L 37.300781 -9.695312 L 66.941406 -32.667969 L 69.660156 -40.203125 L 16.488281 -40.203125 L 12.96875 -30.507812 L 33.964844 -30.507812 L 4.632812 -7.535156 Z M 1.914062 0 "/></g></g></g><g fill="#000000" fill-opacity="1"><g transform="translate(517.814135, 512.49645)"><g><path d="M 28.902344 -5.125 L 41.621094 -40.203125 L 24.515625 -40.203125 C 23.898438 -40.203125 23.21875 -40.015625 22.726562 -39.707031 L 18.28125 -37.421875 C 17.292969 -36.929688 16.550781 -36.066406 16.179688 -35.078125 L 3.457031 0 L 20.5625 0 C 21.183594 0 21.859375 -0.183594 22.355469 -0.492188 L 26.863281 -2.777344 C 27.789062 -3.273438 28.53125 -4.136719 28.902344 -5.125 Z M 28.902344 -5.125 "/></g></g></g><g fill="#000000" fill-opacity="1"><g transform="translate(549.86068, 512.49645)"><g><path d="M 14.449219 0 L 44.03125 0 C 53.355469 0 60.457031 -3.707031 63.359375 -11.671875 L 70.152344 -30.320312 C 70.832031 -32.175781 70.460938 -33.902344 69.414062 -34.953125 L 63.917969 -39.277344 C 63.300781 -39.957031 62.3125 -40.203125 61.074219 -40.203125 L 31.496094 -40.203125 C 22.292969 -40.203125 15.191406 -36.496094 12.289062 -28.53125 L 5.496094 -9.878906 C 4.878906 -8.152344 5.0625 -6.421875 6.175781 -5.371094 L 11.609375 -0.925781 C 12.226562 -0.246094 13.214844 0 14.449219 0 Z M 30.570312 -12.722656 L 35.941406 -27.480469 C 36.621094 -29.210938 38.472656 -30.507812 40.078125 -30.507812 L 42.859375 -30.507812 C 44.585938 -30.507812 45.574219 -29.210938 44.894531 -27.480469 L 39.523438 -12.722656 C 38.96875 -11.054688 37.054688 -9.695312 35.449219 -9.695312 L 32.667969 -9.695312 C 30.9375 -9.695312 30.011719 -11.054688 30.570312 -12.722656 Z M 30.570312 -12.722656 "/></g></g></g><g clip-path="url(#e81c6f818b)"><path fill="#000000" d="M 76.644531 403.898438 C 84.839844 399.007812 93.820312 395.601562 103.089844 393.488281 C 104.246094 393.203125 105.414062 392.984375 106.582031 392.742188 C 107.164062 392.628906 107.753906 392.535156 108.339844 392.429688 C 108.925781 392.324219 109.511719 392.226562 110.105469 392.144531 C 112.457031 391.746094 114.832031 391.511719 117.210938 391.277344 C 121.972656 390.875 126.777344 390.75 131.585938 390.957031 C 132.789062 390.996094 133.988281 391.082031 135.195312 391.152344 C 136.398438 391.253906 137.601562 391.351562 138.804688 391.484375 C 141.210938 391.738281 143.621094 392.058594 146.019531 392.484375 C 148.425781 392.898438 150.832031 393.371094 153.226562 393.949219 C 155.621094 394.53125 158.019531 395.164062 160.429688 395.855469 C 156.265625 393.0625 151.6875 390.839844 146.921875 389.105469 C 145.730469 388.664062 144.519531 388.285156 143.304688 387.894531 C 142.085938 387.539062 140.863281 387.183594 139.625 386.882812 C 137.152344 386.25 134.648438 385.761719 132.117188 385.390625 C 130.855469 385.195312 129.585938 385.054688 128.3125 384.90625 C 127.675781 384.839844 127.039062 384.800781 126.402344 384.746094 C 125.761719 384.6875 125.125 384.648438 124.484375 384.621094 C 121.925781 384.453125 119.359375 384.488281 116.792969 384.546875 C 115.511719 384.609375 114.226562 384.664062 112.949219 384.792969 L 111.027344 384.972656 L 109.109375 385.199219 C 108.472656 385.269531 107.835938 385.378906 107.199219 385.480469 C 106.5625 385.585938 105.925781 385.679688 105.292969 385.792969 C 104.03125 386.042969 102.761719 386.261719 101.507812 386.5625 C 91.464844 388.851562 81.785156 393.085938 73.527344 399.28125 C 69.421875 402.394531 65.652344 405.960938 62.5 409.996094 C 61.703125 411 60.964844 412.042969 60.238281 413.089844 L 59.210938 414.699219 C 58.863281 415.230469 58.566406 415.796875 58.25 416.34375 C 57.003906 418.554688 55.953125 420.863281 55.136719 423.230469 C 61.078125 415.164062 68.4375 408.78125 76.644531 403.898438 Z M 578.03125 328.621094 L 577.398438 328.644531 C 555.703125 322.21875 534.035156 315.734375 512.109375 310.453125 C 500.636719 307.632812 489.09375 305.167969 477.488281 303.183594 C 474.59375 302.640625 471.679688 302.246094 468.773438 301.773438 C 467.320312 301.550781 465.867188 301.308594 464.414062 301.097656 L 460.042969 300.527344 L 455.675781 299.953125 C 454.21875 299.765625 452.753906 299.644531 451.292969 299.484375 C 448.371094 299.203125 445.457031 298.835938 442.53125 298.667969 L 438.140625 298.351562 C 436.679688 298.25 435.21875 298.121094 433.753906 298.085938 C 430.828125 297.976562 427.898438 297.828125 424.976562 297.746094 L 416.230469 297.699219 C 413.316406 297.777344 410.40625 297.90625 407.492188 298.003906 C 395.859375 298.660156 384.285156 300.179688 372.886719 302.601562 C 361.484375 305.007812 350.25 308.230469 339.246094 312.152344 C 328.230469 316.039062 317.425781 320.59375 306.816406 325.597656 C 304.167969 326.851562 301.503906 328.078125 298.882812 329.410156 C 296.257812 330.730469 293.609375 331.992188 291.011719 333.375 C 288.410156 334.742188 285.785156 336.074219 283.195312 337.46875 L 275.386719 341.679688 C 270.140625 344.488281 264.800781 347.289062 259.230469 349.765625 C 253.667969 352.246094 247.863281 354.410156 241.804688 355.863281 L 239.53125 356.390625 L 237.277344 356.835938 C 235.777344 357.152344 234.269531 357.363281 232.765625 357.625 C 229.757812 358.074219 226.75 358.476562 223.75 358.765625 C 217.75 359.394531 211.789062 359.722656 205.882812 360.089844 C 199.976562 360.445312 194.136719 360.859375 188.355469 361.492188 L 170.757812 363.691406 C 164.882812 364.414062 159.027344 365.148438 153.191406 365.980469 C 147.355469 366.8125 141.542969 367.730469 135.757812 368.765625 C 124.199219 370.855469 112.75 373.546875 101.746094 377.503906 C 90.746094 381.402344 80.160156 386.703125 71.21875 394.222656 C 66.765625 397.980469 62.800781 402.347656 59.578125 407.246094 C 56.320312 412.125 53.867188 417.550781 52.167969 423.230469 C 53.402344 417.429688 55.542969 411.792969 58.511719 406.589844 C 61.492188 401.390625 65.316406 396.660156 69.683594 392.515625 C 74.046875 388.351562 78.964844 384.804688 84.128906 381.710938 C 89.296875 378.613281 94.726562 375.988281 100.285156 373.707031 C 105.84375 371.425781 111.542969 369.519531 117.292969 367.839844 C 123.042969 366.15625 128.851562 364.71875 134.6875 363.433594 C 140.523438 362.136719 146.394531 361.058594 152.265625 360.058594 C 158.136719 359.058594 164.015625 358.160156 169.878906 357.273438 L 187.492188 354.585938 C 193.472656 353.773438 199.445312 353.265625 205.359375 352.785156 C 211.273438 352.308594 217.140625 351.84375 222.917969 351.175781 C 225.8125 350.851562 228.671875 350.429688 231.515625 349.964844 C 232.925781 349.695312 234.355469 349.480469 235.746094 349.164062 L 237.847656 348.722656 L 239.894531 348.214844 C 242.617188 347.503906 245.316406 346.671875 247.980469 345.679688 C 250.648438 344.699219 253.296875 343.613281 255.910156 342.40625 C 261.152344 340.027344 266.292969 337.28125 271.46875 334.453125 L 279.285156 330.199219 C 281.910156 328.777344 284.566406 327.417969 287.203125 326.023438 C 289.832031 324.617188 292.53125 323.320312 295.195312 321.972656 C 297.851562 320.609375 300.566406 319.351562 303.265625 318.0625 C 314.101562 312.984375 325.175781 308.347656 336.519531 304.390625 C 347.871094 300.464844 359.480469 297.195312 371.304688 294.863281 C 383.121094 292.535156 395.125 291.082031 407.164062 290.671875 C 410.175781 290.625 413.1875 290.550781 416.195312 290.527344 L 425.222656 290.765625 C 428.21875 290.929688 431.203125 291.160156 434.191406 291.355469 C 435.6875 291.441406 437.175781 291.605469 438.664062 291.753906 L 443.132812 292.199219 C 446.113281 292.457031 449.070312 292.90625 452.035156 293.277344 C 453.515625 293.480469 455.003906 293.644531 456.480469 293.875 L 460.90625 294.578125 L 465.328125 295.28125 C 466.800781 295.539062 468.265625 295.820312 469.730469 296.089844 C 472.667969 296.632812 475.601562 297.167969 478.511719 297.824219 C 490.179688 300.289062 501.734375 303.195312 513.15625 306.503906 C 535.136719 312.929688 556.695312 320.5 578.03125 328.621094 Z M 578.03125 328.621094 " fill-opacity="1" fill-rule="nonzero"/></g><g clip-path="url(#06e78cf6a8)"><path fill="#f8cf40" d="M 578.03125 330.683594 L 577.398438 330.707031 L 500.355469 333.738281 L 425.039062 348.671875 L 762.328125 323.445312 Z M 288.257812 373.769531 L 377.460938 356.078125 L 687.722656 343.886719 Z M 175.589844 396.535156 L 264.792969 378.84375 L 575.050781 366.652344 Z M 175.589844 396.535156 " fill-opacity="1" fill-rule="nonzero"/></g></svg>